<svg width="25" height="26" viewBox="0 0 25 26" fill="none" xmlns="http://www.w3.org/2000/svg">
<path fill-rule="evenodd" clip-rule="evenodd" d="M2.5 8C2.5 7.33696 2.76339 6.70107 3.23223 6.23223C3.70107 5.76339 4.33696 5.5 5 5.5H10L12.5 8H17.5C18.163 8 18.7989 8.26339 19.2678 8.73223C19.7366 9.20107 20 9.83696 20 10.5V11.75H10C9.00544 11.75 8.05161 12.1451 7.34835 12.8483C6.64509 13.5516 6.25 14.5054 6.25 15.5V17.375C6.25 17.8723 6.05246 18.3492 5.70083 18.7008C5.34919 19.0525 4.87228 19.25 4.375 19.25C3.87772 19.25 3.40081 19.0525 3.04917 18.7008C2.69754 18.3492 2.5 17.8723 2.5 17.375V8Z" fill="white"/>
<path d="M7.5 15.5C7.5 14.837 7.76339 14.2011 8.23223 13.7322C8.70107 13.2634 9.33696 13 10 13H20C20.663 13 21.2989 13.2634 21.7678 13.7322C22.2366 14.2011 22.5 14.837 22.5 15.5V18C22.5 18.663 22.2366 19.2989 21.7678 19.7678C21.2989 20.2366 20.663 20.5 20 20.5H2.5H5C5.66304 20.5 6.29893 20.2366 6.76777 19.7678C7.23661 19.2989 7.5 18.663 7.5 18V15.5Z" fill="white"/>
</svg>
