<svg width="24" height="25" viewBox="0 0 24 25" fill="none" xmlns="http://www.w3.org/2000/svg">
<g id="pencil-alt">
<path id="Vector" d="M20.8968 3.6032C20.4468 3.15327 19.8364 2.90051 19.2 2.90051C18.5636 2.90051 17.9533 3.15327 17.5032 3.6032L8.40002 12.7064V16.1H11.7936L20.8968 6.9968C21.3468 6.54673 21.5995 5.93639 21.5995 5.3C21.5995 4.66361 21.3468 4.05327 20.8968 3.6032Z" fill="white"/>
<path id="Vector_2" fill-rule="evenodd" clip-rule="evenodd" d="M2.40002 7.70005C2.40002 7.06353 2.65288 6.45308 3.10297 6.00299C3.55306 5.55291 4.1635 5.30005 4.80002 5.30005H9.60002C9.91828 5.30005 10.2235 5.42648 10.4486 5.65152C10.6736 5.87656 10.8 6.18179 10.8 6.50005C10.8 6.81831 10.6736 7.12353 10.4486 7.34858C10.2235 7.57362 9.91828 7.70005 9.60002 7.70005H4.80002V19.7H16.8V14.9C16.8 14.5818 16.9265 14.2766 17.1515 14.0515C17.3765 13.8265 17.6818 13.7 18 13.7C18.3183 13.7 18.6235 13.8265 18.8486 14.0515C19.0736 14.2766 19.2 14.5818 19.2 14.9V19.7C19.2 20.3366 18.9472 20.947 18.4971 21.3971C18.047 21.8472 17.4365 22.1 16.8 22.1H4.80002C4.1635 22.1 3.55306 21.8472 3.10297 21.3971C2.65288 20.947 2.40002 20.3366 2.40002 19.7V7.70005Z" fill="white"/>
</g>
</svg>
