<svg width="24" height="25" viewBox="0 0 24 25" fill="none" xmlns="http://www.w3.org/2000/svg">
<path d="M4.29289 4.79289C4.10536 4.98043 4 5.23478 4 5.5V7.5C4 7.76522 4.10536 8.01957 4.29289 8.20711C4.48043 8.39464 4.73478 8.5 5 8.5H19C19.2652 8.5 19.5196 8.39464 19.7071 8.20711C19.8946 8.01957 20 7.76522 20 7.5V5.5C20 5.23478 19.8946 4.98043 19.7071 4.79289C19.5196 4.60536 19.2652 4.5 19 4.5H5C4.73478 4.5 4.48043 4.60536 4.29289 4.79289Z" stroke="#8F8F8F" stroke-width="2" stroke-linecap="round" stroke-linejoin="round"/>
<path d="M4.29289 12.7929C4.10536 12.9804 4 13.2348 4 13.5V19.5C4 19.7652 4.10536 20.0196 4.29289 20.2071C4.48043 20.3946 4.73478 20.5 5 20.5H11C11.2652 20.5 11.5196 20.3946 11.7071 20.2071C11.8946 20.0196 12 19.7652 12 19.5V13.5C12 13.2348 11.8946 12.9804 11.7071 12.7929C11.5196 12.6054 11.2652 12.5 11 12.5H5C4.73478 12.5 4.48043 12.6054 4.29289 12.7929Z" stroke="#8F8F8F" stroke-width="2" stroke-linecap="round" stroke-linejoin="round"/>
<path d="M16.2929 12.7929C16.1054 12.9804 16 13.2348 16 13.5V19.5C16 19.7652 16.1054 20.0196 16.2929 20.2071C16.4804 20.3946 16.7348 20.5 17 20.5H19C19.2652 20.5 19.5196 20.3946 19.7071 20.2071C19.8946 20.0196 20 19.7652 20 19.5V13.5C20 13.2348 19.8946 12.9804 19.7071 12.7929C19.5196 12.6054 19.2652 12.5 19 12.5H17C16.7348 12.5 16.4804 12.6054 16.2929 12.7929Z" stroke="#8F8F8F" stroke-width="2" stroke-linecap="round" stroke-linejoin="round"/>
</svg>
