<svg width="24" height="25" viewBox="0 0 24 25" fill="none" xmlns="http://www.w3.org/2000/svg">
<g id="trash">
<path id="Vector" fill-rule="evenodd" clip-rule="evenodd" d="M10.8 2.90002C10.5772 2.90014 10.3588 2.96228 10.1693 3.07949C9.97987 3.19669 9.82676 3.36433 9.72718 3.56362L8.85838 5.30002H4.79998C4.48172 5.30002 4.17649 5.42645 3.95145 5.6515C3.7264 5.87654 3.59998 6.18176 3.59998 6.50002C3.59998 6.81828 3.7264 7.12351 3.95145 7.34855C4.17649 7.5736 4.48172 7.70002 4.79998 7.70002V19.7C4.79998 20.3365 5.05283 20.947 5.50292 21.3971C5.95301 21.8472 6.56346 22.1 7.19998 22.1H16.8C17.4365 22.1 18.0469 21.8472 18.497 21.3971C18.9471 20.947 19.2 20.3365 19.2 19.7V7.70002C19.5182 7.70002 19.8235 7.5736 20.0485 7.34855C20.2735 7.12351 20.4 6.81828 20.4 6.50002C20.4 6.18176 20.2735 5.87654 20.0485 5.6515C19.8235 5.42645 19.5182 5.30002 19.2 5.30002H15.1416L14.2728 3.56362C14.1732 3.36433 14.0201 3.19669 13.8306 3.07949C13.6411 2.96228 13.4228 2.90014 13.2 2.90002H10.8ZM8.39998 10.1C8.39998 9.78176 8.5264 9.47654 8.75145 9.2515C8.97649 9.02645 9.28172 8.90002 9.59998 8.90002C9.91823 8.90002 10.2235 9.02645 10.4485 9.2515C10.6735 9.47654 10.8 9.78176 10.8 10.1V17.3C10.8 17.6183 10.6735 17.9235 10.4485 18.1486C10.2235 18.3736 9.91823 18.5 9.59998 18.5C9.28172 18.5 8.97649 18.3736 8.75145 18.1486C8.5264 17.9235 8.39998 17.6183 8.39998 17.3V10.1ZM14.4 8.90002C14.0817 8.90002 13.7765 9.02645 13.5514 9.2515C13.3264 9.47654 13.2 9.78176 13.2 10.1V17.3C13.2 17.6183 13.3264 17.9235 13.5514 18.1486C13.7765 18.3736 14.0817 18.5 14.4 18.5C14.7182 18.5 15.0235 18.3736 15.2485 18.1486C15.4735 17.9235 15.6 17.6183 15.6 17.3V10.1C15.6 9.78176 15.4735 9.47654 15.2485 9.2515C15.0235 9.02645 14.7182 8.90002 14.4 8.90002Z" fill="white"/>
</g>
</svg>
