<svg width="24" height="25" viewBox="0 0 24 25" fill="none" xmlns="http://www.w3.org/2000/svg">
<path d="M4.58579 5.08579C4.21071 5.46086 4 5.96957 4 6.5V8.5C4 9.03043 4.21071 9.53914 4.58579 9.91421C4.96086 10.2893 5.46957 10.5 6 10.5H8C8.53043 10.5 9.03914 10.2893 9.41421 9.91421C9.78929 9.53914 10 9.03043 10 8.5V6.5C10 5.96957 9.78929 5.46086 9.41421 5.08579C9.03914 4.71071 8.53043 4.5 8 4.5H6C5.46957 4.5 4.96086 4.71071 4.58579 5.08579Z" stroke="white" stroke-width="2" stroke-linecap="round" stroke-linejoin="round"/>
<path d="M14.5858 5.08579C14.2107 5.46086 14 5.96957 14 6.5V8.5C14 9.03043 14.2107 9.53914 14.5858 9.91421C14.9609 10.2893 15.4696 10.5 16 10.5H18C18.5304 10.5 19.0391 10.2893 19.4142 9.91421C19.7893 9.53914 20 9.03043 20 8.5V6.5C20 5.96957 19.7893 5.46086 19.4142 5.08579C19.0391 4.71071 18.5304 4.5 18 4.5H16C15.4696 4.5 14.9609 4.71071 14.5858 5.08579Z" stroke="white" stroke-width="2" stroke-linecap="round" stroke-linejoin="round"/>
<path d="M4.58579 15.0858C4.21071 15.4609 4 15.9696 4 16.5V18.5C4 19.0304 4.21071 19.5391 4.58579 19.9142C4.96086 20.2893 5.46957 20.5 6 20.5H8C8.53043 20.5 9.03914 20.2893 9.41421 19.9142C9.78929 19.5391 10 19.0304 10 18.5V16.5C10 15.9696 9.78929 15.4609 9.41421 15.0858C9.03914 14.7107 8.53043 14.5 8 14.5H6C5.46957 14.5 4.96086 14.7107 4.58579 15.0858Z" stroke="white" stroke-width="2" stroke-linecap="round" stroke-linejoin="round"/>
<path d="M14.5858 15.0858C14.2107 15.4609 14 15.9696 14 16.5V18.5C14 19.0304 14.2107 19.5391 14.5858 19.9142C14.9609 20.2893 15.4696 20.5 16 20.5H18C18.5304 20.5 19.0391 20.2893 19.4142 19.9142C19.7893 19.5391 20 19.0304 20 18.5V16.5C20 15.9696 19.7893 15.4609 19.4142 15.0858C19.0391 14.7107 18.5304 14.5 18 14.5H16C15.4696 14.5 14.9609 14.7107 14.5858 15.0858Z" stroke="white" stroke-width="2" stroke-linecap="round" stroke-linejoin="round"/>
</svg>
